<svg width="415" height="88" viewBox="0 0 415 88" fill="none" xmlns="http://www.w3.org/2000/svg">
<path d="M30.3234 0.233643C27.3054 0.233643 24.9718 0.981659 23.1879 2.16579C21.4104 3.3457 20.2489 4.91172 19.4928 6.44366C18.7728 7.90262 18.4111 9.34849 18.228 10.4519C11.3316 10.7227 5.82115 16.4017 5.82115 23.3643C5.82115 26.7868 7.15258 29.8991 9.32558 32.2114C3.99412 33.4519 0.03125 38.226 0.03125 43.9394C0.03125 49.6372 3.9726 54.4009 9.28212 55.6572C7.1434 57.963 5.8356 61.0503 5.8356 64.4422C5.8356 71.4048 11.3461 77.0838 18.2425 77.3547C18.4256 78.4581 18.7873 79.9039 19.5073 81.3629C20.2633 82.8948 21.4249 84.4608 23.2024 85.6407C24.9863 86.8249 27.3198 87.5728 30.3379 87.5728C33.3404 87.5728 35.6747 86.8806 37.4739 85.7844C39.2703 84.6899 40.4699 83.2318 41.266 81.7937C42.0587 80.3618 42.4567 78.9417 42.6581 77.8874C42.7593 77.3578 42.8122 76.9137 42.8399 76.5969C42.8537 76.4383 42.8613 76.3111 42.8655 76.2203C42.8676 76.1749 42.8688 76.1386 42.8696 76.1121C42.8699 76.0988 42.8702 76.0879 42.8703 76.0796L42.8706 76.0621L42.8706 66.4058H50.5231C51.8747 66.4058 52.9632 67.5028 52.9632 68.846V76.1792C50.5753 76.7125 48.7905 78.8444 48.7905 81.3931C48.7905 84.3435 51.1823 86.7353 54.1328 86.7353C57.0832 86.7353 59.4751 84.3435 59.4751 81.3931C59.4751 78.8341 57.6758 76.6953 55.2734 76.1728V68.846C55.2734 66.2329 53.1566 64.0956 50.5231 64.0956H41.3913L41.3834 64.0956L41.3587 64.0956H40.5604V64.1255C38.7332 64.2597 36.8368 64.8644 35.327 66.292C33.574 67.9496 32.5181 70.549 32.5181 74.2748C32.5181 74.9128 33.0353 75.4299 33.6732 75.4299C34.3112 75.4299 34.8283 74.9128 34.8283 74.2748C34.8283 70.9835 35.7506 69.0709 36.9142 67.9706C37.8989 67.0395 39.1813 66.5718 40.5604 66.4432V76.0409L40.5604 76.0411L40.5602 76.049C40.5599 76.0617 40.5592 76.0836 40.5578 76.1142C40.555 76.1753 40.5494 76.2708 40.5385 76.3956C40.5166 76.6458 40.4735 77.0116 40.389 77.4539C40.219 78.3435 39.887 79.515 39.2449 80.6748C38.6061 81.8285 37.6661 82.9621 36.272 83.8115C34.8808 84.6591 32.9737 85.2627 30.3379 85.2627C27.7177 85.2627 25.8406 84.6191 24.48 83.716C23.1131 82.8086 22.1964 81.5916 21.5789 80.3405C20.959 79.0843 20.6513 77.8137 20.5007 76.8471C20.4258 76.3666 20.3908 75.9687 20.3746 75.6954C20.3665 75.559 20.3631 75.4543 20.3617 75.3866C20.361 75.3527 20.3608 75.3282 20.3607 75.3136L20.3607 75.3043L20.3607 75.2993V75.2988L20.3607 75.298L20.3608 75.2931V75.2856C20.3608 63.3202 29.5589 55.1726 38.7412 55.1726H64.8606C65.9938 55.1726 66.9141 56.0601 66.9663 57.18C64.5146 57.6647 62.6659 59.8269 62.6659 62.4208C62.6659 65.3713 65.0578 67.7631 68.0082 67.7631C70.9587 67.7631 73.3505 65.3713 73.3505 62.4208C73.3505 59.9081 71.6158 57.8005 69.2786 57.2305C69.2518 54.8109 67.2867 52.8624 64.8606 52.8624H38.7412C28.2968 52.8624 18.1817 61.9803 18.0519 75.0314C12.5215 74.6678 8.14578 70.0643 8.14578 64.4422C8.14578 58.5828 12.8987 53.8298 18.7582 53.8298C19.1205 53.8298 19.4654 53.8433 19.8001 53.8805C20.4342 53.951 21.0053 53.4941 21.0757 52.86C21.1462 52.226 20.6893 51.6549 20.0553 51.5845C19.6103 51.535 19.1755 51.5196 18.7582 51.5196C16.1248 51.5196 13.6751 52.3079 11.6321 53.6612C6.45458 53.4314 2.34143 49.1746 2.34143 43.9394C2.34143 38.6738 6.50246 34.3979 11.7223 34.2139C13.7441 35.5253 16.1552 36.2869 18.7437 36.2869C19.161 36.2869 19.5958 36.2715 20.0408 36.2221C20.6748 36.1516 21.1317 35.5805 21.0613 34.9465C20.9908 34.3125 20.4197 33.8556 19.7857 33.926C19.451 33.9632 19.1061 33.9767 18.7437 33.9767C12.8843 33.9767 8.13133 29.2238 8.13133 23.3643C8.13133 17.7422 12.5071 13.1388 18.0374 12.7751C18.1672 25.8262 28.2824 34.9441 38.7267 34.9441H64.8606C67.283 34.9441 69.2458 33.0015 69.2784 30.587C71.6084 30.0118 73.3361 27.9077 73.3361 25.4001C73.3361 22.4497 70.9443 20.0578 67.9939 20.0578C65.0434 20.0578 62.6516 22.4497 62.6516 25.4001C62.6516 27.9988 64.507 30.1641 66.9655 30.6435C66.9047 31.7554 65.988 32.634 64.8606 32.634H38.7267C29.5445 32.634 20.3464 24.4864 20.3464 12.521V12.5135L20.3463 12.5086L20.3463 12.5077V12.5072L20.3463 12.5032L20.3463 12.4929C20.3463 12.4784 20.3465 12.4537 20.3472 12.4199C20.3487 12.3522 20.3521 12.2475 20.3602 12.1111C20.3764 11.8379 20.4113 11.4399 20.4862 10.9594C20.6369 9.99275 20.9445 8.72226 21.5645 7.46606C22.1819 6.21496 23.0986 4.99785 24.4656 4.09047C25.8261 3.18733 27.7032 2.54382 30.3234 2.54382C32.9592 2.54382 34.8663 3.14742 36.2575 3.99502C37.6517 4.84439 38.5917 5.97803 39.2304 7.13175C39.8725 8.29156 40.2046 9.46311 40.3745 10.3527C40.459 10.795 40.5021 11.1607 40.524 11.4109C40.5349 11.5358 40.5405 11.6312 40.5433 11.6923C40.5447 11.7229 40.5454 11.7448 40.5458 11.7575L40.546 11.7656V21.3632C39.1669 21.2346 37.8845 20.7669 36.8997 19.8358C35.7361 18.7355 34.8139 16.8229 34.8139 13.5316C34.8139 12.8936 34.2967 12.3765 33.6588 12.3765C33.0208 12.3765 32.5037 12.8936 32.5037 13.5316C32.5037 17.2574 33.5595 19.8568 35.3125 21.5144C36.8224 22.942 38.7187 23.5467 40.546 23.6809V23.7253H50.5086C53.1421 23.7253 55.2589 21.5879 55.2589 18.9749V11.6336C57.6614 11.1111 59.4606 8.97234 59.4606 6.41334C59.4606 3.46288 57.0688 1.07105 54.1183 1.07105C51.1679 1.07105 48.776 3.46288 48.776 6.41334C48.776 8.96205 50.5608 11.0939 52.9488 11.6272V18.9749C52.9488 20.3181 51.8602 21.4151 50.5086 21.4151H42.8562L42.8559 11.727C42.8557 11.7186 42.8555 11.7077 42.8551 11.6944C42.8544 11.6679 42.8531 11.6315 42.8511 11.5861C42.8469 11.4954 42.8393 11.3683 42.8254 11.2097C42.7977 10.8929 42.7448 10.4486 42.6437 9.91908C42.4423 8.86483 42.0443 7.44467 41.2515 6.01276C40.4554 4.57475 39.2558 3.11654 37.4595 2.02211C35.6602 0.925907 33.326 0.233643 30.3234 0.233643Z" fill="url(#paint0_linear_4066_103761)"/>
<path d="M24.4614 35.1607C25.0994 35.1607 25.6165 35.6778 25.6165 36.3158C25.6165 37.5994 26.2131 39.1419 27.2643 40.3686C28.3082 41.5868 29.6858 42.3655 31.1609 42.3655C31.2233 42.3655 31.2844 42.3705 31.3441 42.38H48.8854C49.4347 40.0138 51.5561 38.2506 54.0894 38.2506C56.6227 38.2506 58.7441 40.0138 59.2934 42.38H75.7701C76.3194 40.0138 78.4409 38.2506 80.9742 38.2506C83.9246 38.2506 86.3164 40.6424 86.3164 43.5929C86.3164 46.5433 83.9246 48.9351 80.9742 48.9351C78.3998 48.9351 76.2507 47.1143 75.7447 44.6902H59.3189C58.8128 47.1143 56.6638 48.9351 54.0894 48.9351C51.5151 48.9351 49.366 47.1143 48.8599 44.6902H31.1609V44.6757C31.0792 44.6757 30.998 44.6742 30.9172 44.6712C30.8833 44.6742 30.849 44.6757 30.8144 44.6757C29.3392 44.6757 27.9616 45.4545 26.9177 46.6727C25.8665 47.8994 25.2699 49.4419 25.2699 50.7255C25.2699 51.3635 24.7528 51.8806 24.1148 51.8806C23.4769 51.8806 22.9597 51.3635 22.9597 50.7255C22.9597 48.8038 23.8143 46.7439 25.1635 45.1694C25.7419 44.4945 26.4322 43.8854 27.2139 43.4087C26.5736 42.9711 26.0014 42.4452 25.5101 41.8718C24.1609 40.2974 23.3063 38.2375 23.3063 36.3158C23.3063 35.6778 23.8235 35.1607 24.4614 35.1607Z" fill="url(#paint1_linear_4066_103761)"/>
<path fill-rule="evenodd" clip-rule="evenodd" d="M334.932 53.9726C336.641 53.9726 338.046 53.7064 339.145 53.174C340.244 52.6416 341.119 51.9044 341.771 50.9625C342.422 49.9795 342.87 48.8328 343.114 47.5223C343.399 46.2117 343.542 44.7783 343.542 43.222C343.542 41.6657 343.399 40.2118 343.114 38.8603C342.87 37.4679 342.422 36.2597 341.771 35.2358C341.119 34.212 340.244 33.4134 339.145 32.84C338.046 32.2257 336.641 31.9185 334.932 31.9185H329.497V53.9726H334.932ZM334.932 25.7139C337.496 25.7139 339.756 26.1644 341.71 27.0654C343.664 27.9254 345.292 29.1336 346.595 30.6899C347.938 32.2461 348.935 34.0891 349.587 36.2188C350.238 38.3484 350.564 40.6828 350.564 43.222C350.564 45.7612 350.238 48.0956 349.587 50.2253C348.935 52.3549 347.938 54.1979 346.595 55.7542C345.292 57.2695 343.664 58.4572 341.71 59.3172C339.756 60.1773 337.496 60.6073 334.932 60.6073H323.879C323.513 60.6073 323.187 60.4844 322.902 60.2387C322.617 59.952 322.475 59.6039 322.475 59.1944V27.1268C322.475 26.7173 322.617 26.3896 322.902 26.1439C323.187 25.8572 323.513 25.7139 323.879 25.7139H334.932ZM365.085 46.3551V53.9727H381.328C381.735 53.9727 382.061 54.116 382.305 54.4027C382.549 54.6484 382.671 54.9556 382.671 55.3242V59.2558C382.671 59.6244 382.549 59.9521 382.305 60.2387C382.061 60.4845 381.735 60.6073 381.328 60.6073H359.467C359.101 60.6073 358.775 60.4845 358.49 60.2387C358.205 59.9521 358.063 59.6039 358.063 59.1944V27.1268C358.063 26.7173 358.205 26.3897 358.49 26.1439C358.775 25.8572 359.101 25.7139 359.467 25.7139H381.328C381.735 25.7139 382.061 25.8572 382.305 26.1439C382.549 26.3897 382.671 26.6968 382.671 27.0654V30.9971C382.671 31.3657 382.549 31.6933 382.305 31.98C382.061 32.2257 381.735 32.3486 381.328 32.3486H365.085V40.0276H376.687C377.094 40.0276 377.42 40.1709 377.664 40.4576C377.908 40.7033 378.031 41.0105 378.031 41.3791V45.0036C378.031 45.3722 377.908 45.6998 377.664 45.9865C377.42 46.2322 377.094 46.3551 376.687 46.3551H365.085ZM391.053 25.7139H396.017C396.355 25.7139 396.664 25.9073 396.811 26.2116L399.244 31.2429C399.58 31.9374 399.581 32.7472 399.246 33.4421L397.165 37.7605C396.846 38.4223 395.905 38.4266 395.581 37.7678L390.262 26.9854C389.973 26.3996 390.4 25.7139 391.053 25.7139ZM413.205 60.5423H408.242C407.898 60.5423 407.585 60.3421 407.441 60.0295L402.578 49.4669C402.55 49.4058 402.529 49.3423 402.515 49.2777L397.075 60.1211C396.925 60.4192 396.62 60.6073 396.287 60.6073H391.159C390.503 60.6073 390.077 59.9175 390.37 59.3313L406.947 26.201C407.096 25.9025 407.401 25.7139 407.735 25.7139H412.91C413.566 25.7139 413.992 26.4046 413.698 26.9908L405.887 42.5578L413.998 59.276C414.282 59.8614 413.856 60.5423 413.205 60.5423Z" fill="url(#paint2_linear_4066_103761)"/>
<path fill-rule="evenodd" clip-rule="evenodd" d="M132.067 31.8831L132.072 31.884C132.295 31.903 132.512 31.9281 132.724 31.9592C133.219 31.9216 133.643 31.5503 133.727 31.0384L134.423 26.7873C134.522 26.1867 134.114 25.6201 133.514 25.5217L133.269 25.4816L133.27 25.476C132.518 25.3881 131.76 25.3442 130.996 25.3442C128.522 25.3442 126.194 25.8001 124.012 26.7117C121.831 27.5909 119.91 28.8281 118.249 30.4235C116.621 31.9864 115.335 33.8423 114.391 35.9913C113.447 38.1402 112.975 40.4682 112.975 42.9753C112.975 45.4824 113.447 47.8104 114.391 49.9593C115.368 52.1083 116.67 53.9805 118.298 55.5759C119.959 57.1388 121.88 58.376 124.061 59.2877C126.275 60.1668 128.62 60.6064 131.094 60.6064C133.601 60.6064 135.897 60.1505 137.98 59.2389C140.097 58.3272 141.904 57.0899 143.402 55.5271C144.932 53.9316 146.12 52.0757 146.967 49.9593C147.813 47.8104 148.237 45.4987 148.237 43.0241C148.237 42.4381 148.025 41.9334 147.602 41.5101C147.179 41.0868 146.674 40.8752 146.088 40.8752H140.017V40.873H134.748C134.14 40.873 133.646 41.3664 133.646 41.975V45.9079C133.646 46.5165 134.14 47.0098 134.748 47.0098H140.017V46.9801H140.667C140.439 48.1197 140.015 49.1291 139.397 50.0082C138.811 50.8873 138.094 51.6362 137.248 52.2548C136.401 52.8734 135.457 53.3456 134.415 53.6712C133.406 53.9642 132.331 54.1107 131.192 54.1107C129.596 54.1107 128.131 53.8177 126.796 53.2316C125.461 52.6455 124.305 51.8641 123.329 50.8873C122.352 49.878 121.587 48.7058 121.033 47.3709C120.512 46.0033 120.252 44.5382 120.252 42.9753C120.252 41.4124 120.512 39.9635 121.033 38.6286C121.554 37.2611 122.287 36.0889 123.231 35.1121C124.175 34.1028 125.298 33.3051 126.601 32.719C127.936 32.1329 129.401 31.8399 130.996 31.8399C131.366 31.8399 131.723 31.8544 132.067 31.8835L132.067 31.8831ZM178.763 54.1622C178.516 53.8742 178.187 53.7302 177.775 53.7302H161.361V46.0783H173.085C173.497 46.0783 173.826 45.9549 174.073 45.7081C174.319 45.4201 174.443 45.091 174.443 44.7208V41.08C174.443 40.7097 174.319 40.4012 174.073 40.1543C173.826 39.8664 173.497 39.7224 173.085 39.7224H161.361V32.0088H177.775C178.187 32.0088 178.516 31.8854 178.763 31.6385C179.009 31.3506 179.133 31.0215 179.133 30.6512V26.7019C179.133 26.3316 179.009 26.0231 178.763 25.7762C178.516 25.4883 178.187 25.3443 177.775 25.3443H155.684C155.313 25.3443 154.984 25.4883 154.696 25.7762C154.408 26.0231 154.264 26.3522 154.264 26.7636V58.9754C154.264 59.3868 154.408 59.7365 154.696 60.0245C154.984 60.2713 155.313 60.3947 155.684 60.3947H177.775C178.187 60.3947 178.516 60.2713 178.763 60.0245C179.009 59.7365 179.133 59.4074 179.133 59.0371V55.0878C179.133 54.7175 179.009 54.409 178.763 54.1622ZM213.359 60.2338C213.632 59.9441 213.769 59.5923 213.769 59.1784V26.7721C213.769 26.3583 213.632 26.0272 213.359 25.7788C213.086 25.4891 212.774 25.3443 212.423 25.3443H208.386C208.035 25.3443 207.723 25.4891 207.45 25.7788C207.176 26.0272 207.04 26.3583 207.04 26.7721V47.6314L194.343 26.3376C194.226 26.0892 194.051 25.8616 193.817 25.6547C193.622 25.4477 193.368 25.3443 193.056 25.3443H188.668C188.317 25.3443 188.005 25.4891 187.732 25.7788C187.459 26.0272 187.322 26.3583 187.322 26.7721V59.1784C187.322 59.5923 187.459 59.9441 187.732 60.2338C188.005 60.4821 188.317 60.6063 188.668 60.6063H192.705C193.056 60.6063 193.368 60.4821 193.641 60.2338C193.914 59.9441 194.051 59.5923 194.051 59.1784V38.2571L206.513 59.1784C206.708 59.5095 207.001 59.8406 207.391 60.1717C207.781 60.4614 208.152 60.6063 208.503 60.6063H212.423C212.774 60.6063 213.086 60.4821 213.359 60.2338ZM229.681 58.9754C229.681 59.3868 229.537 59.7365 229.249 60.0245C228.961 60.2713 228.632 60.3947 228.261 60.3947H224.004C223.633 60.3947 223.304 60.2713 223.016 60.0245C222.728 59.7365 222.584 59.3868 222.584 58.9754V26.7636C222.584 26.3522 222.728 26.0231 223.016 25.7762C223.304 25.4883 223.633 25.3443 224.004 25.3443H228.261C228.632 25.3443 228.961 25.4883 229.249 25.7762C229.537 26.0231 229.681 26.3522 229.681 26.7636V58.9754ZM243.297 56.3968C245.351 59.2031 248.732 60.6063 253.438 60.6063C258.145 60.6063 261.526 59.2031 263.58 56.3968C265.634 53.5905 266.662 49.6657 266.662 44.6225V26.7474C266.662 26.3407 266.531 26.0153 266.269 25.7713C266.008 25.4866 265.709 25.3443 265.373 25.3443H261.507C261.171 25.3443 260.872 25.4866 260.61 25.7713C260.349 26.0153 260.218 26.3407 260.218 26.7474V44.1954C260.218 45.7816 260.125 47.2051 259.938 48.4659C259.789 49.7267 259.471 50.8045 258.985 51.6993C258.5 52.5534 257.809 53.2245 256.912 53.7125C256.053 54.2006 254.895 54.4446 253.438 54.4446C251.982 54.4446 250.805 54.2006 249.908 53.7125C249.049 53.2245 248.377 52.5534 247.891 51.6993C247.406 50.8045 247.07 49.7267 246.883 48.4659C246.733 47.2051 246.659 45.7816 246.659 44.1954V26.7474C246.659 26.3407 246.528 26.0153 246.266 25.7713C246.005 25.4866 245.706 25.3443 245.37 25.3443H241.504C241.168 25.3443 240.869 25.4866 240.607 25.7713C240.346 26.0153 240.215 26.3407 240.215 26.7474V44.6225C240.215 49.6657 241.242 53.5905 243.297 56.3968ZM280.042 43.1533L287.685 46.8626C288.856 47.4333 289.652 48.0277 290.093 48.6221C290.535 49.2166 290.756 50.025 290.756 51.0237C290.756 52.3076 290.292 53.3063 289.364 53.9958C288.437 54.6854 287.155 55.0421 285.543 55.0421C282.848 55.0421 279.909 54.0672 276.706 52.1174C275.845 51.5943 275.182 51.7845 274.718 52.7119L273.525 55.0658C273.061 55.9694 273.238 56.6827 274.055 57.2058C277.634 59.4647 281.478 60.606 285.609 60.606C289.431 60.606 292.369 59.7738 294.423 58.1094C296.478 56.4449 297.516 54.1147 297.516 51.1425C297.516 48.9312 297.052 47.1242 296.124 45.7451C295.196 44.366 293.628 43.1533 291.419 42.0833L284.792 38.4457C283.643 37.875 282.803 37.2568 282.295 36.6148C281.787 35.9728 281.522 35.2119 281.522 34.3322C281.522 33.1908 281.92 32.3349 282.715 31.7642C283.51 31.1935 284.593 30.9082 285.94 30.9082C288.304 30.932 291.596 31.7639 294.335 33.4045C295.196 33.9276 295.859 33.7374 296.323 32.8339L297.516 30.5037C297.98 29.5764 297.803 28.863 296.964 28.3637C293.584 26.3426 289.431 25.3443 286.007 25.3443C282.516 25.3443 279.755 26.1052 277.745 27.6507C275.734 29.1962 274.718 31.3838 274.718 34.2133C274.718 37.9474 276.711 41.3857 280.042 43.1533Z" fill="white"/>
<defs>
<linearGradient id="paint0_linear_4066_103761" x1="0.03125" y1="43.9032" x2="86.3164" y2="43.9032" gradientUnits="userSpaceOnUse">
<stop stop-color="#59EECA"/>
<stop offset="1" stop-color="#59D3EE"/>
</linearGradient>
<linearGradient id="paint1_linear_4066_103761" x1="0.03125" y1="43.9032" x2="86.3164" y2="43.9032" gradientUnits="userSpaceOnUse">
<stop stop-color="#59EECA"/>
<stop offset="1" stop-color="#59D3EE"/>
</linearGradient>
<linearGradient id="paint2_linear_4066_103761" x1="321.203" y1="47.6589" x2="410.135" y2="47.2045" gradientUnits="userSpaceOnUse">
<stop stop-color="#59EECA"/>
<stop offset="1" stop-color="#59D3EE"/>
</linearGradient>
</defs>
</svg>
